<svg width="32" height="29" viewBox="0 0 32 29" fill="none" xmlns="http://www.w3.org/2000/svg">
<path fill-rule="evenodd" clip-rule="evenodd" d="M16.1145 0.149261C7.66053 0.149261 0.807251 6.56429 0.807251 14.4776C0.807251 22.391 7.66053 28.806 16.1145 28.806C24.5684 28.806 31.4217 22.391 31.4217 14.4776C31.4217 6.56429 24.5684 0.149261 16.1145 0.149261ZM16.1145 8.65674C16.907 8.65674 17.5495 9.25815 17.5495 10V13.1343H20.898C21.6905 13.1343 22.333 13.7357 22.333 14.4776C22.333 15.2195 21.6905 15.8209 20.898 15.8209H17.5495V18.9552C17.5495 19.6971 16.907 20.2985 16.1145 20.2985C15.3219 20.2985 14.6794 19.6971 14.6794 18.9552V15.8209H11.331C10.5384 15.8209 9.89592 15.2195 9.89592 14.4776C9.89592 13.7357 10.5384 13.1343 11.331 13.1343H14.6794V10C14.6794 9.25815 15.3219 8.65674 16.1145 8.65674Z" fill="#E7E7E7"/>
</svg>
