<svg width="28" height="24" viewBox="0 0 28 24" fill="none" xmlns="http://www.w3.org/2000/svg">
<path d="M11.6424 0.00328081C10.7854 -0.0227715 9.9312 0.106541 9.1286 0.383835C8.32599 0.661129 7.59069 1.08097 6.96466 1.6194C6.33863 2.15782 5.83414 2.80429 5.48 3.52187C5.12585 4.23946 4.92898 5.01411 4.90063 5.80162C4.87228 6.58912 5.013 7.37404 5.31476 8.11156C5.61652 8.84909 6.07341 9.52477 6.65935 10.1C7.24528 10.6753 7.94878 11.1389 8.72968 11.4643C9.51058 11.7898 10.3536 11.9707 11.2106 11.9967C12.0676 12.0228 12.9217 11.8935 13.7243 11.6162C14.5269 11.3389 15.2623 10.919 15.8883 10.3806C16.5143 9.84218 17.0188 9.19572 17.3729 8.47813C17.7271 7.76055 17.924 6.98589 17.9523 6.19839C17.9807 5.41089 17.8399 4.62597 17.5382 3.88844C17.2364 3.15092 16.7795 2.47523 16.1936 1.89996C15.6077 1.32469 14.9042 0.861105 14.1233 0.535673C13.3424 0.21024 12.4993 0.0293332 11.6424 0.00328081Z" fill="#E7E7E7"/>
<path d="M11.4265 15C9.00775 15 6.64305 15.6576 4.63137 16.89C2.61965 18.1224 1.05114 19.8744 0.124763 21.9249C-0.0843596 22.3877 -0.0280871 22.916 0.274744 23.3329C0.577576 23.7497 1.08695 24 1.63236 24H11.4265C12.328 24 13.0588 23.3284 13.0588 22.5V16.5C13.0588 15.6716 12.328 15 11.4265 15Z" fill="#E7E7E7"/>
<path d="M15.7794 18.5C15.7794 17.6716 16.5102 17 17.4118 17H20.1324V14.5C20.1324 13.6716 20.8632 13 21.7647 13C22.6662 13 23.3971 13.6716 23.3971 14.5V17H26.1176C27.0192 17 27.75 17.6716 27.75 18.5C27.75 19.3284 27.0192 20 26.1176 20H23.3971V22.5C23.3971 23.3284 22.6662 24 21.7647 24C20.8632 24 20.1324 23.3284 20.1324 22.5V20H17.4118C16.5102 20 15.7794 19.3284 15.7794 18.5Z" fill="#E7E7E7"/>
</svg>
