<svg width="32" height="31" viewBox="0 0 32 31" fill="none" xmlns="http://www.w3.org/2000/svg">
<path fill-rule="evenodd" clip-rule="evenodd" d="M15.75 30.5C24.4485 30.5 31.5 23.6723 31.5 15.25C31.5 6.82766 24.4485 0 15.75 0C7.05152 0 0 6.82766 0 15.25C0 23.6723 7.05152 30.5 15.75 30.5ZM10.0227 11.0909C10.0227 10.3252 10.6638 9.70455 11.4545 9.70455H11.4736C12.2644 9.70455 12.9055 10.3252 12.9055 11.0909C12.9055 11.8566 12.2644 12.4773 11.4736 12.4773H11.4545C10.6638 12.4773 10.0227 11.8566 10.0227 11.0909ZM9.94731 18.9082C10.4966 18.3574 11.4031 18.3421 11.9719 18.8739C12.9657 19.8031 14.3238 20.3333 15.75 20.3333C17.1762 20.3333 18.5343 19.8031 19.5281 18.8739C20.0969 18.3421 21.0034 18.3574 21.5527 18.9082C22.102 19.4589 22.0862 20.3366 21.5174 20.8685C19.9795 22.3064 17.904 23.1061 15.75 23.1061C13.596 23.1061 11.5205 22.3064 9.98265 20.8685C9.41382 20.3366 9.39799 19.4589 9.94731 18.9082ZM20.0455 9.70455C19.2547 9.70455 18.6136 10.3252 18.6136 11.0909C18.6136 11.8566 19.2547 12.4773 20.0455 12.4773H20.0645C20.8553 12.4773 21.4964 11.8566 21.4964 11.0909C21.4964 10.3252 20.8553 9.70455 20.0645 9.70455H20.0455Z" fill="#E7E7E7"/>
</svg>
