<svg width="24" height="24" viewBox="0 0 24 24" fill="none" xmlns="http://www.w3.org/2000/svg">
<path d="M11.972 0.00328081C11.0907 -0.0227715 10.2124 0.106541 9.38706 0.383835C8.56174 0.661129 7.80561 1.08097 7.16186 1.6194C6.5181 2.15782 5.99933 2.80428 5.63516 3.52187C5.27098 4.23946 5.06854 5.01411 5.03938 5.80161C5.01023 6.58912 5.15494 7.37404 5.46524 8.11156C5.77555 8.84909 6.24537 9.52477 6.8479 10.1C7.45042 10.6753 8.17384 11.1389 8.97685 11.4643C9.77986 11.7898 10.6467 11.9707 11.528 11.9967C12.4092 12.0228 13.2876 11.8935 14.1129 11.6162C14.9383 11.3389 15.6944 10.919 16.3381 10.3806C16.9819 9.84218 17.5007 9.19572 17.8648 8.47813C18.229 7.76054 18.4315 6.98589 18.4606 6.19838C18.4898 5.41089 18.3451 4.62597 18.0347 3.88844C17.7244 3.15092 17.2546 2.47523 16.6521 1.89996C16.0496 1.32469 15.3262 0.861105 14.5231 0.535673C13.7201 0.21024 12.8532 0.0293332 11.972 0.00328081Z" fill="#E7E7E7"/>
<path d="M11.75 15C9.2628 15 6.83114 15.6576 4.7625 16.89C2.69382 18.1224 1.0809 19.8744 0.128296 21.9249C-0.0867481 22.3877 -0.0288824 22.916 0.282523 23.3329C0.593929 23.7497 1.11773 24 1.67858 24L21.8214 24C22.3823 24 22.9061 23.7497 23.2175 23.3329C23.5289 22.916 23.5868 22.3877 23.3717 21.9249C22.4191 19.8744 20.8062 18.1224 18.7375 16.89C16.6689 15.6576 14.2372 15 11.75 15Z" fill="#E7E7E7"/>
</svg>
