<svg width="25" height="22" viewBox="0 0 25 22" fill="none" xmlns="http://www.w3.org/2000/svg">
<path fill-rule="evenodd" clip-rule="evenodd" d="M0 4.03333C0 1.80578 2.05203 0 4.58333 0H20.4167C22.948 0 25 1.80578 25 4.03333V12.8333C25 15.0609 22.948 16.8667 20.4167 16.8667H13.7525C13.2478 16.8667 12.7603 17.0278 12.3806 17.3203L6.65646 21.7278C6.28735 22.012 5.76345 22.08 5.31681 21.9017C4.87017 21.7233 4.58333 21.3316 4.58333 20.9V17.7833C4.58333 17.2771 4.11696 16.8667 3.54167 16.8667C1.58566 16.8667 0 15.4713 0 13.75V4.03333ZM13.75 5.5C13.75 4.89249 13.1904 4.4 12.5 4.4C11.8096 4.4 11.25 4.89249 11.25 5.5V7.33333H9.16667C8.47631 7.33333 7.91667 7.82582 7.91667 8.43333C7.91667 9.04084 8.47631 9.53333 9.16667 9.53333H11.25V11.3667C11.25 11.9742 11.8096 12.4667 12.5 12.4667C13.1904 12.4667 13.75 11.9742 13.75 11.3667V9.53333H15.8333C16.5237 9.53333 17.0833 9.04084 17.0833 8.43333C17.0833 7.82582 16.5237 7.33333 15.8333 7.33333H13.75V5.5Z" fill="#E7E7E7"/>
</svg>
